<mxfile host="Electron" modified="2024-05-03T15:03:13.958Z" agent="Mozilla/5.0 (Windows NT 10.0; Win64; x64) AppleWebKit/537.36 (KHTML, like Gecko) draw.io/24.2.5 Chrome/120.0.6099.109 Electron/28.1.0 Safari/537.36" etag="UCkERW_PtbsNSbTFRmX4" version="24.2.5" type="device">
  <diagram name="Page-1" id="NVayNvhocORv5aG18xNb">
    <mxGraphModel dx="-126" dy="3728" grid="1" gridSize="10" guides="1" tooltips="1" connect="1" arrows="1" fold="1" page="1" pageScale="1" pageWidth="850" pageHeight="1100" math="0" shadow="0">
      <root>
        <mxCell id="0" />
        <mxCell id="1" parent="0" />
        <mxCell id="WgHm03wpI3rrd5q_GF2c-1" value="Login/Register" style="swimlane;fontStyle=1;align=center;verticalAlign=top;childLayout=stackLayout;horizontal=1;startSize=26;horizontalStack=0;resizeParent=1;resizeParentMax=0;resizeLast=0;collapsible=1;marginBottom=0;whiteSpace=wrap;html=1;" parent="1" vertex="1">
          <mxGeometry x="1300" y="-3190" width="240" height="170" as="geometry" />
        </mxCell>
        <mxCell id="WgHm03wpI3rrd5q_GF2c-3" value="" style="line;strokeWidth=1;fillColor=none;align=left;verticalAlign=middle;spacingTop=-1;spacingLeft=3;spacingRight=3;rotatable=0;labelPosition=right;points=[];portConstraint=eastwest;strokeColor=inherit;" parent="WgHm03wpI3rrd5q_GF2c-1" vertex="1">
          <mxGeometry y="26" width="240" height="8" as="geometry" />
        </mxCell>
        <mxCell id="WgHm03wpI3rrd5q_GF2c-4" value="&lt;u&gt;+ run(Scanner): void&lt;/u&gt;&lt;div&gt;&lt;u&gt;- menuEnter(matcher: Matcher): void&lt;/u&gt;&lt;/div&gt;&lt;div&gt;&lt;u&gt;- menuExit(): void&lt;/u&gt;&lt;/div&gt;&lt;div&gt;&lt;u&gt;- showCurrentMenu(): void&lt;/u&gt;&lt;/div&gt;&lt;div&gt;&lt;u&gt;- Register(matcher: Matcher): void&lt;/u&gt;&lt;/div&gt;&lt;div&gt;&lt;u&gt;- Login(matcher: Matcher): void&lt;/u&gt;&lt;/div&gt;&lt;div&gt;&lt;u&gt;- forgotPassword(matcher: Matcher): void&lt;/u&gt;&lt;/div&gt;&lt;div&gt;&lt;u&gt;- Logout(): void&lt;/u&gt;&lt;/div&gt;" style="text;strokeColor=none;fillColor=none;align=left;verticalAlign=top;spacingLeft=4;spacingRight=4;overflow=hidden;rotatable=0;points=[[0,0.5],[1,0.5]];portConstraint=eastwest;whiteSpace=wrap;html=1;" parent="WgHm03wpI3rrd5q_GF2c-1" vertex="1">
          <mxGeometry y="34" width="240" height="136" as="geometry" />
        </mxCell>
        <mxCell id="WgHm03wpI3rrd5q_GF2c-5" value="ProfileMenu" style="swimlane;fontStyle=1;align=center;verticalAlign=top;childLayout=stackLayout;horizontal=1;startSize=29;horizontalStack=0;resizeParent=1;resizeParentMax=0;resizeLast=0;collapsible=1;marginBottom=0;whiteSpace=wrap;html=1;" parent="1" vertex="1">
          <mxGeometry x="920" y="-3190" width="270" height="153" as="geometry">
            <mxRectangle x="880" y="-3250" width="100" height="30" as="alternateBounds" />
          </mxGeometry>
        </mxCell>
        <mxCell id="WgHm03wpI3rrd5q_GF2c-7" value="" style="line;strokeWidth=1;fillColor=none;align=left;verticalAlign=middle;spacingTop=-1;spacingLeft=3;spacingRight=3;rotatable=0;labelPosition=right;points=[];portConstraint=eastwest;strokeColor=inherit;" parent="WgHm03wpI3rrd5q_GF2c-5" vertex="1">
          <mxGeometry y="29" width="270" height="8" as="geometry" />
        </mxCell>
        <mxCell id="WgHm03wpI3rrd5q_GF2c-8" value="- changeUsername(matcher: Matcher): void&lt;div&gt;- changePassword(matcher: Matcher): void&lt;/div&gt;&lt;div&gt;- changeEmail(matcher: Matcher): void&lt;/div&gt;&lt;div&gt;- changeNickName(matcher: Matcher): void&lt;/div&gt;&lt;div&gt;- showUserInfo(): void&lt;/div&gt;&lt;div&gt;- gameHistory(matcher: Matcher): void&lt;/div&gt;&lt;div&gt;+ run(Scanner): void&lt;/div&gt;" style="text;strokeColor=none;fillColor=none;align=left;verticalAlign=top;spacingLeft=4;spacingRight=4;overflow=hidden;rotatable=0;points=[[0,0.5],[1,0.5]];portConstraint=eastwest;whiteSpace=wrap;html=1;fontStyle=4" parent="WgHm03wpI3rrd5q_GF2c-5" vertex="1">
          <mxGeometry y="37" width="270" height="116" as="geometry" />
        </mxCell>
        <mxCell id="WgHm03wpI3rrd5q_GF2c-10" value="PreGame" style="swimlane;fontStyle=1;align=center;verticalAlign=top;childLayout=stackLayout;horizontal=1;startSize=26;horizontalStack=0;resizeParent=1;resizeParentMax=0;resizeLast=0;collapsible=1;marginBottom=0;whiteSpace=wrap;html=1;" parent="1" vertex="1">
          <mxGeometry x="920" y="-3000" width="240" height="260" as="geometry" />
        </mxCell>
        <mxCell id="WgHm03wpI3rrd5q_GF2c-12" value="" style="line;strokeWidth=1;fillColor=none;align=left;verticalAlign=middle;spacingTop=-1;spacingLeft=3;spacingRight=3;rotatable=0;labelPosition=right;points=[];portConstraint=eastwest;strokeColor=inherit;" parent="WgHm03wpI3rrd5q_GF2c-10" vertex="1">
          <mxGeometry y="26" width="240" height="8" as="geometry" />
        </mxCell>
        <mxCell id="WgHm03wpI3rrd5q_GF2c-13" value="+ run(Scanner): void&lt;div&gt;- creatGame(matcher: Matcher): void&lt;/div&gt;&lt;div&gt;- showFaction(): void&lt;/div&gt;&lt;div&gt;- selectFaction(matcher: Matcher): void&lt;/div&gt;&lt;div&gt;- showCard(): void&lt;/div&gt;&lt;div&gt;- showDeck(): void&lt;/div&gt;&lt;div&gt;- showInformationCurrentUser(): void&lt;/div&gt;&lt;div&gt;- showLeader(): void&lt;/div&gt;&lt;div&gt;- saveDeck(): void&lt;/div&gt;&lt;div&gt;- loadDeck(): void&lt;/div&gt;&lt;div&gt;- selectLeader(): void&lt;/div&gt;&lt;div&gt;- addToDeck(): void&lt;/div&gt;&lt;div&gt;- deleteFromDeck(matcher: Matcher): void&lt;/div&gt;&lt;div&gt;- startGame(): void&lt;/div&gt;&lt;div&gt;- changeTurn(): void&lt;/div&gt;" style="text;strokeColor=none;fillColor=none;align=left;verticalAlign=top;spacingLeft=4;spacingRight=4;overflow=hidden;rotatable=0;points=[[0,0.5],[1,0.5]];portConstraint=eastwest;whiteSpace=wrap;html=1;" parent="WgHm03wpI3rrd5q_GF2c-10" vertex="1">
          <mxGeometry y="34" width="240" height="226" as="geometry" />
        </mxCell>
        <mxCell id="WgHm03wpI3rrd5q_GF2c-14" value="GameEnvironment" style="swimlane;fontStyle=1;align=center;verticalAlign=top;childLayout=stackLayout;horizontal=1;startSize=26;horizontalStack=0;resizeParent=1;resizeParentMax=0;resizeLast=0;collapsible=1;marginBottom=0;whiteSpace=wrap;html=1;" parent="1" vertex="1">
          <mxGeometry x="1275" y="-3000" width="310" height="290" as="geometry" />
        </mxCell>
        <mxCell id="WgHm03wpI3rrd5q_GF2c-16" value="" style="line;strokeWidth=1;fillColor=none;align=left;verticalAlign=middle;spacingTop=-1;spacingLeft=3;spacingRight=3;rotatable=0;labelPosition=right;points=[];portConstraint=eastwest;strokeColor=inherit;" parent="WgHm03wpI3rrd5q_GF2c-14" vertex="1">
          <mxGeometry y="26" width="310" height="8" as="geometry" />
        </mxCell>
        <mxCell id="WgHm03wpI3rrd5q_GF2c-17" value="+ run(Scanner): void&lt;div&gt;- veto(matcher: Matcher): void&lt;/div&gt;&lt;div&gt;- showInHandDeck(matcher: Matcher): void&lt;/div&gt;&lt;div&gt;- showRemainingCardsToPlay(&lt;span style=&quot;background-color: initial;&quot;&gt;matcher: Matcher&lt;/span&gt;&lt;span style=&quot;background-color: initial;&quot;&gt;): void&lt;/span&gt;&lt;/div&gt;&lt;div&gt;- showOutOfPlayCards(&lt;span style=&quot;background-color: initial;&quot;&gt;matcher: Matcher&lt;/span&gt;&lt;span style=&quot;background-color: initial;&quot;&gt;): void&lt;/span&gt;&lt;/div&gt;&lt;div&gt;- showCardsInRow(&lt;span style=&quot;background-color: initial;&quot;&gt;matcher: Matcher&lt;/span&gt;&lt;span style=&quot;background-color: initial;&quot;&gt;): void&lt;/span&gt;&lt;/div&gt;&lt;div&gt;- showSpellsInPlay(&lt;span style=&quot;background-color: initial;&quot;&gt;matcher: Matcher&lt;/span&gt;&lt;span style=&quot;background-color: initial;&quot;&gt;): void&lt;/span&gt;&lt;/div&gt;&lt;div&gt;- showPlaceCardInRow(&lt;span style=&quot;background-color: initial;&quot;&gt;matcher: Matcher&lt;/span&gt;&lt;span style=&quot;background-color: initial;&quot;&gt;): void&lt;/span&gt;&lt;/div&gt;&lt;div&gt;- showCommander(): void&lt;/div&gt;&lt;div&gt;- CommanderPowerPlay(): void&lt;/div&gt;&lt;div&gt;- showPlayersInfo(): void&lt;/div&gt;&lt;div&gt;- showPlayersLives(): void&lt;/div&gt;&lt;div&gt;- showNumberOfCardsInHand(): void&lt;/div&gt;&lt;div&gt;- showTurnInfo(): void&lt;/div&gt;&lt;div&gt;- showTotalScore():void&lt;/div&gt;&lt;div&gt;- showTotalScoreOfRow(): void&lt;/div&gt;&lt;div&gt;- passRound(): void&lt;/div&gt;" style="text;strokeColor=none;fillColor=none;align=left;verticalAlign=top;spacingLeft=4;spacingRight=4;overflow=hidden;rotatable=0;points=[[0,0.5],[1,0.5]];portConstraint=eastwest;whiteSpace=wrap;html=1;" parent="WgHm03wpI3rrd5q_GF2c-14" vertex="1">
          <mxGeometry y="34" width="310" height="256" as="geometry" />
        </mxCell>
        <mxCell id="WgHm03wpI3rrd5q_GF2c-19" value="Controller" style="shape=umlFrame;whiteSpace=wrap;html=1;pointerEvents=0;" parent="1" vertex="1">
          <mxGeometry x="860" y="-3290" width="790" height="610" as="geometry" />
        </mxCell>
      </root>
    </mxGraphModel>
  </diagram>
</mxfile>
